<svg xmlns="http://www.w3.org/2000/svg" viewBox="0 0 150 150">
<!-- SVG created with Arrow, by QuiverAI (https://quiver.ai) -->
  <style type="text/css">.cls-0 {fill:#1AB9E5;}
.cls-1 {fill:#E71D86;}
.cls-2 {fill:#FCC91C;}</style>
  <path class="cls-0" d="m36.6 1.3-4.3 24.1-0.1 0.2-6.9 41.3 6.8 6.9c10.2-7.4 16.8-28.7 24.6-34.6 2.7-2.5 6.6-4 10.2-4.1l0.8-5.1h73l2.4-14.2 1.6-14.5h-108.1z"/>
  <path class="cls-1" d="m68.8 64.9h-6.7l1.3-11.5c-7.9 13.8-12.4 25.3-25.9 26.6-1.1 0.1-2.8 0-4.4 0-2.9 1.8-6.7 3.2-10.6 3.5l-10.5 65.6h36l9.2-54.7h23.3c-3.9-7.6-8.2-22-11.7-29.5z"/>
  <path class="cls-2" d="m139.8 67.4h-15.8c-2.9 0-5.4 0.3-7.7 1.8-9.1 5.5-12.9 18.4-16.8 21.4-1.7 1.1-3.1-0.1-3.9-1.1-6.2-7.8-12.2-33.6-19.1-43.3-2-2.6-4.7-5.1-7.9-5.6-6.2-0.9-9.3 1.9-12.9 7.4-3.6 5.9-8.8 15.8-12.4 21.2-2.2 3.1-5.8 7.3-10.4 10.6h2.9c12.8 0 16.8-6.9 22.4-16l5.1-9.1c2.6-4 3.6-6.1 6-3.4 4.5 5.6 10.3 25.2 14.9 35.8 2.9 6.4 7.3 14 14.8 13.5 10.3-0.5 12.8-9.9 17.7-18 1.7-3 3.9-5.7 7.5-5.7l16-0.1c2-0.2 3.7-2.1 3.8-3.9 0.4-2.9-1.8-5.3-4.2-5.5z"/>
  <path class="cls-2" d="m25.2 66.9c-1.4 0.8-3 1.6-4.8 1.6h-11.8c-2 0-3.9 2.5-3.3 5.6 0.8 3.3 2.7 4 4.4 4h10.5c4.2 0 8.2-1 11.9-4.2l-6.9-7z"/>
</svg>