<svg xmlns="http://www.w3.org/2000/svg" viewBox="0 0 100 100">
<!-- SVG created with Arrow, by QuiverAI (https://quiver.ai) -->
  <path d="m95.9 1.6h-70.9l-2.6 15.8-0.2 0.7c-0.5 3.6-1.6 9.5-2.4 14.8-0.5 3.5-1.4 8.4-2.1 11.9-0.7 0.5-1.9 1.1-3.1 1.1h-7.8c-1.5 0-2.6 1.5-2.6 3.1s1.1 3.2 2.8 3.2h7c3.4 0 6.4-0.9 9.4-3.9 4-3.9 7.3-11.5 10.8-17.1 2.1-3.1 4.3-5.8 8.4-6.8 0.8-0.2 1.5-0.3 2.1-0.3l0.5-3.3h47.9l1.6-9.3 1.2-9.9z"/>
  <path d="m92.6 45.2h-10.2c-2 0-4 0.2-5.8 1.4-5.2 3.1-7.2 9.8-9.8 13.2-0.8 1-1.6 1.2-2.2 0.9s-1.2-0.9-1.7-1.8c-3-5-6.3-16.5-9.3-22.8-1-2-2.2-4.5-4-6.1-1.4-1.3-2.8-2.2-5.2-2.2-2 0-3.7 0.8-5 2.2-1.3 1.3-2.3 2.9-3.3 4.7-2 3.4-3.9 7.1-5.9 10.4-1.8 3-4.6 6.3-7.2 8.1-1.8 1.2-4.4 2.4-7.1 2.6l-6.9 43h23.5l5.8-35.7h15.6c-3-5.5-5.5-14.5-7.9-19.6h-4.5l0.9-7.3c1-1.3 1.6-2.1 2.2-2.1s1.3 0.5 2 1.7c3.3 5.1 6.8 17.4 10 24.1 0.8 1.5 1.8 3.3 3 4.5 1.5 1.5 3.4 2.7 5.5 2.7 4 0.1 6.8-2.5 8.8-6.2 3-5.3 4.2-9.5 8.2-9.5h10.5c1.4 0 2.8-1.4 2.8-3 0.2-1.5-1-3-2.8-3.2z"/>
</svg>